<?xml version="1.0" standalone="no"?>
<!DOCTYPE svg PUBLIC "-//W3C//DTD SVG 20010904//EN"
 "http://www.w3.org/TR/2001/REC-SVG-20010904/DTD/svg10.dtd">
<svg version="1.0" xmlns="http://www.w3.org/2000/svg"
 width="592.000000pt" height="592.000000pt" viewBox="0 0 592.000000 592.000000"
 preserveAspectRatio="xMidYMid meet">
<metadata>
Created by potrace 1.11, written by Peter Selinger 2001-2013
</metadata>
<g transform="translate(0.000000,592.000000) scale(0.100000,-0.100000)"
fill="#000000" stroke="none">
<path d="M2770 5450 c-490 -41 -958 -228 -1335 -533 -112 -90 -308 -294 -392
-407 -255 -340 -408 -712 -469 -1137 -20 -141 -19 -451 1 -609 143 -1088 991
-1936 2079 -2079 152 -20 440 -20 592 0 1088 143 1936 991 2079 2079 20 158
21 468 1 609 -64 448 -242 860 -519 1202 -90 112 -294 308 -407 392 -339 254
-717 410 -1132 468 -132 18 -376 26 -498 15z m439 -535 c291 -42 554 -145 811
-318 144 -98 369 -323 467 -467 227 -337 333 -676 333 -1070 0 -394 -106 -733
-333 -1070 -98 -145 -323 -370 -467 -466 -141 -95 -218 -136 -324 -173 -476
-167 -1016 -167 -1492 0 -106 37 -183 78 -324 173 -144 96 -369 321 -467 466
-227 337 -333 676 -333 1070 0 394 106 733 333 1070 98 144 323 369 467 467
253 171 519 276 802 317 127 19 399 19 527 1z"/>
<path d="M2750 4814 c-14 -2 -68 -11 -120 -20 -52 -9 -155 -36 -227 -59 -618
-202 -1061 -709 -1190 -1360 -25 -128 -25 -502 0 -630 129 -651 572 -1158
1190 -1360 206 -67 295 -80 547 -80 252 0 341 13 547 80 618 202 1061 709
1190 1360 25 128 25 502 0 630 -127 645 -567 1152 -1177 1356 -199 66 -285 80
-525 84 -115 2 -221 1 -235 -1z"/>
</g>
</svg>
